G04*
G04 #@! TF.GenerationSoftware,Altium Limited,Altium Designer,26.2.0 (7)*
G04*
G04 Layer_Color=8388736*
%FSLAX25Y25*%
%MOIN*%
G70*
G04*
G04 #@! TF.SameCoordinates,E8282BCE-06FA-4BCD-A659-1799FBCFE347*
G04*
G04*
G04 #@! TF.FilePolarity,Positive*
G04*
G01*
G75*
%ADD11C,0.00394*%
D11*
X122047Y94488D02*
X129921Y102362D01*
X122047Y70866D02*
Y94488D01*
X114173Y3937D02*
X122047Y11811D01*
X102362Y3937D02*
X114173D01*
X122047Y11811D02*
Y70866D01*
X314961Y82677D02*
Y94488D01*
X307087Y102362D02*
X314961Y94488D01*
X307087Y102362D02*
X307087D01*
X307087Y125984D02*
X314961Y133858D01*
X98425Y3937D02*
X102362D01*
X129921Y102362D02*
X307087Y102362D01*
X59055Y125984D02*
X307087D01*
X55118Y122047D02*
X59055Y125984D01*
X82677Y3937D02*
X98425D01*
X61024D02*
X82677D01*
X55118Y9843D02*
X61024Y3937D01*
X55118Y9843D02*
Y63402D01*
X314961Y7874D02*
Y82677D01*
Y7874D02*
X322835Y0D01*
X326772D01*
X314961Y133858D02*
Y216535D01*
X322835Y224410D01*
X326772D01*
X334646D01*
X346457D01*
X354331Y216535D01*
X346457Y0D02*
X354331Y7874D01*
Y216535D01*
X326772Y0D02*
X346457D01*
X326772Y188976D02*
X326772Y188976D01*
X55118Y112205D02*
X58071Y109252D01*
X59843D01*
X55118Y112205D02*
Y122047D01*
Y69570D02*
X57398Y71850D01*
X55118Y63402D02*
Y69570D01*
X68110Y107087D02*
X70866Y109843D01*
X77953D01*
X79921Y107874D01*
X82284D01*
Y73228D02*
Y107874D01*
X79921Y73228D02*
X82284D01*
X68110Y74016D02*
X70866Y71260D01*
X77953D01*
X63189Y74016D02*
X68110D01*
X61024Y71851D02*
X63189Y74016D01*
X77953Y71260D02*
X79921Y73228D01*
X59843Y71851D02*
X61024D01*
X57398Y71850D02*
X59842D01*
X63386Y107087D02*
X68110D01*
X61221Y109252D02*
X63386Y107087D01*
X59843Y109252D02*
X61221D01*
M02*
