G04*
G04 #@! TF.GenerationSoftware,Altium Limited,Altium Designer,26.2.0 (7)*
G04*
G04 Layer_Color=8388736*
%FSLAX25Y25*%
%MOIN*%
G70*
G04*
G04 #@! TF.SameCoordinates,E8282BCE-06FA-4BCD-A659-1799FBCFE347*
G04*
G04*
G04 #@! TF.FilePolarity,Negative*
G04*
G01*
G75*
%ADD17R,0.05591X0.13110*%
%ADD18R,0.04528X0.03740*%
%ADD19R,0.04921X0.02953*%
%ADD20R,0.04921X0.01772*%
%ADD21C,0.06890*%
G04:AMPARAMS|DCode=22|XSize=68.9mil|YSize=68.9mil|CornerRadius=18.7mil|HoleSize=0mil|Usage=FLASHONLY|Rotation=180.000|XOffset=0mil|YOffset=0mil|HoleType=Round|Shape=RoundedRectangle|*
%AMROUNDEDRECTD22*
21,1,0.06890,0.03150,0,0,180.0*
21,1,0.03150,0.06890,0,0,180.0*
1,1,0.03740,-0.01575,0.01575*
1,1,0.03740,0.01575,0.01575*
1,1,0.03740,0.01575,-0.01575*
1,1,0.03740,-0.01575,-0.01575*
%
%ADD22ROUNDEDRECTD22*%
%ADD23C,0.07087*%
G04:AMPARAMS|DCode=24|XSize=70.87mil|YSize=70.87mil|CornerRadius=19.19mil|HoleSize=0mil|Usage=FLASHONLY|Rotation=270.000|XOffset=0mil|YOffset=0mil|HoleType=Round|Shape=RoundedRectangle|*
%AMROUNDEDRECTD24*
21,1,0.07087,0.03248,0,0,270.0*
21,1,0.03248,0.07087,0,0,270.0*
1,1,0.03839,-0.01624,-0.01624*
1,1,0.03839,-0.01624,0.01624*
1,1,0.03839,0.01624,0.01624*
1,1,0.03839,0.01624,-0.01624*
%
%ADD24ROUNDEDRECTD24*%
%ADD25C,0.06693*%
%ADD26C,0.03740*%
%ADD27C,0.25787*%
G04:AMPARAMS|DCode=28|XSize=68.9mil|YSize=68.9mil|CornerRadius=18.7mil|HoleSize=0mil|Usage=FLASHONLY|Rotation=90.000|XOffset=0mil|YOffset=0mil|HoleType=Round|Shape=RoundedRectangle|*
%AMROUNDEDRECTD28*
21,1,0.06890,0.03150,0,0,90.0*
21,1,0.03150,0.06890,0,0,90.0*
1,1,0.03740,0.01575,0.01575*
1,1,0.03740,0.01575,-0.01575*
1,1,0.03740,-0.01575,-0.01575*
1,1,0.03740,-0.01575,0.01575*
%
%ADD28ROUNDEDRECTD28*%
%ADD29R,0.06693X0.06693*%
%ADD30C,0.10158*%
%ADD31C,0.07972*%
G36*
X149653Y122340D02*
X149698Y122329D01*
X149728Y122316D01*
X149741Y122311D01*
X149780Y122287D01*
X149816Y122257D01*
X151784Y120288D01*
X151814Y120253D01*
X151839Y120213D01*
X151844Y120201D01*
X151857Y120170D01*
X151867Y120125D01*
X151871Y120079D01*
Y116142D01*
X151867Y116095D01*
X151857Y116050D01*
X151844Y116020D01*
X151839Y116007D01*
X151814Y115968D01*
X151784Y115932D01*
X149816Y113964D01*
X149780Y113934D01*
X149741Y113909D01*
X149728Y113904D01*
X149698Y113891D01*
X149653Y113881D01*
X149606Y113877D01*
X145669D01*
X145623Y113881D01*
X145578Y113891D01*
X145547Y113904D01*
X145535Y113909D01*
X145495Y113934D01*
X145460Y113964D01*
X143491Y115932D01*
X143461Y115968D01*
X143437Y116007D01*
X143432Y116020D01*
X143419Y116050D01*
X143408Y116095D01*
X143405Y116142D01*
Y120079D01*
X143408Y120125D01*
X143419Y120170D01*
X143432Y120201D01*
X143437Y120213D01*
X143461Y120253D01*
X143491Y120288D01*
X145460Y122257D01*
X145495Y122287D01*
X145535Y122311D01*
X145547Y122316D01*
X145578Y122329D01*
X145623Y122340D01*
X145669Y122343D01*
X149606D01*
X149653Y122340D01*
D02*
G37*
G36*
X120125D02*
X120170Y122329D01*
X120201Y122316D01*
X120213Y122311D01*
X120253Y122287D01*
X120288Y122257D01*
X122257Y120288D01*
X122287Y120253D01*
X122311Y120213D01*
X122316Y120201D01*
X122329Y120170D01*
X122340Y120125D01*
X122343Y120079D01*
Y116142D01*
X122340Y116095D01*
X122329Y116050D01*
X122316Y116020D01*
X122311Y116007D01*
X122287Y115968D01*
X122257Y115932D01*
X120288Y113964D01*
X120253Y113934D01*
X120213Y113909D01*
X120201Y113904D01*
X120170Y113891D01*
X120125Y113881D01*
X120079Y113877D01*
X116142D01*
X116095Y113881D01*
X116050Y113891D01*
X116020Y113904D01*
X116007Y113909D01*
X115968Y113934D01*
X115932Y113964D01*
X113964Y115932D01*
X113934Y115968D01*
X113909Y116007D01*
X113904Y116020D01*
X113891Y116050D01*
X113881Y116095D01*
X113877Y116142D01*
Y120079D01*
X113881Y120125D01*
X113891Y120170D01*
X113904Y120201D01*
X113909Y120213D01*
X113934Y120253D01*
X113964Y120288D01*
X115932Y122257D01*
X115968Y122287D01*
X116007Y122311D01*
X116020Y122316D01*
X116050Y122329D01*
X116095Y122340D01*
X116142Y122343D01*
X120079D01*
X120125Y122340D01*
D02*
G37*
G36*
X94534D02*
X94580Y122329D01*
X94610Y122316D01*
X94623Y122311D01*
X94662Y122287D01*
X94698Y122257D01*
X96666Y120288D01*
X96696Y120253D01*
X96721Y120213D01*
X96726Y120201D01*
X96738Y120170D01*
X96749Y120125D01*
X96753Y120079D01*
Y116142D01*
X96749Y116095D01*
X96738Y116050D01*
X96726Y116020D01*
X96721Y116007D01*
X96696Y115968D01*
X96666Y115932D01*
X94698Y113964D01*
X94662Y113934D01*
X94623Y113909D01*
X94610Y113904D01*
X94580Y113891D01*
X94534Y113881D01*
X94488Y113877D01*
X90551D01*
X90505Y113881D01*
X90460Y113891D01*
X90429Y113904D01*
X90417Y113909D01*
X90377Y113934D01*
X90342Y113964D01*
X88373Y115932D01*
X88343Y115968D01*
X88319Y116007D01*
X88314Y116020D01*
X88301Y116050D01*
X88290Y116095D01*
X88287Y116142D01*
Y120079D01*
X88290Y120125D01*
X88301Y120170D01*
X88314Y120201D01*
X88319Y120213D01*
X88343Y120253D01*
X88373Y120288D01*
X90342Y122257D01*
X90377Y122287D01*
X90417Y122311D01*
X90429Y122316D01*
X90460Y122329D01*
X90505Y122340D01*
X90551Y122343D01*
X94488D01*
X94534Y122340D01*
D02*
G37*
D17*
X81457Y46859D02*
D03*
X91457D02*
D03*
X111457D02*
D03*
X101457D02*
D03*
D18*
X98425Y103347D02*
D03*
Y109252D02*
D03*
Y89567D02*
D03*
Y83661D02*
D03*
D19*
X86024Y77953D02*
D03*
Y103150D02*
D03*
Y81102D02*
D03*
Y100000D02*
D03*
D20*
Y97441D02*
D03*
Y93504D02*
D03*
Y87598D02*
D03*
Y83661D02*
D03*
Y85630D02*
D03*
Y89567D02*
D03*
Y91535D02*
D03*
Y95472D02*
D03*
D21*
X332520Y70866D02*
D03*
Y49213D02*
D03*
X342520Y211693D02*
D03*
D22*
X342520Y70866D02*
D03*
Y49213D02*
D03*
D23*
X342677Y185039D02*
D03*
Y95039D02*
D03*
Y105039D02*
D03*
X332677Y95039D02*
D03*
Y105039D02*
D03*
X342677Y125039D02*
D03*
X332677D02*
D03*
X342677Y155039D02*
D03*
X332677D02*
D03*
X342677Y165039D02*
D03*
X332677D02*
D03*
Y175039D02*
D03*
X342677D02*
D03*
X332677Y145039D02*
D03*
X342677D02*
D03*
X332677Y135039D02*
D03*
X342677D02*
D03*
X332677Y115039D02*
D03*
X342677D02*
D03*
D24*
X332677Y185039D02*
D03*
D25*
X65945Y26575D02*
D03*
Y16575D02*
D03*
Y36575D02*
D03*
D26*
X327559Y18504D02*
D03*
Y32677D02*
D03*
X341732D02*
D03*
X334646Y15748D02*
D03*
Y35433D02*
D03*
X324803Y25591D02*
D03*
X344488D02*
D03*
X341732Y18504D02*
D03*
D27*
X334646Y25591D02*
D03*
D28*
X342520Y201693D02*
D03*
D29*
X65945Y46575D02*
D03*
D30*
X65748Y68425D02*
D03*
Y112677D02*
D03*
D31*
X81496Y68425D02*
D03*
Y112677D02*
D03*
M02*
