G04*
G04 #@! TF.GenerationSoftware,Altium Limited,Altium Designer,26.2.0 (7)*
G04*
G04 Layer_Physical_Order=2*
G04 Layer_Color=16711680*
%FSLAX25Y25*%
%MOIN*%
G70*
G04*
G04 #@! TF.SameCoordinates,E8282BCE-06FA-4BCD-A659-1799FBCFE347*
G04*
G04*
G04 #@! TF.FilePolarity,Positive*
G04*
G01*
G75*
%ADD32C,0.03150*%
%ADD33C,0.01500*%
%ADD36C,0.06299*%
G04:AMPARAMS|DCode=37|XSize=62.99mil|YSize=62.99mil|CornerRadius=15.75mil|HoleSize=0mil|Usage=FLASHONLY|Rotation=180.000|XOffset=0mil|YOffset=0mil|HoleType=Round|Shape=RoundedRectangle|*
%AMROUNDEDRECTD37*
21,1,0.06299,0.03150,0,0,180.0*
21,1,0.03150,0.06299,0,0,180.0*
1,1,0.03150,-0.01575,0.01575*
1,1,0.03150,0.01575,0.01575*
1,1,0.03150,0.01575,-0.01575*
1,1,0.03150,-0.01575,-0.01575*
%
%ADD37ROUNDEDRECTD37*%
%ADD38C,0.06496*%
G04:AMPARAMS|DCode=39|XSize=64.96mil|YSize=64.96mil|CornerRadius=16.24mil|HoleSize=0mil|Usage=FLASHONLY|Rotation=270.000|XOffset=0mil|YOffset=0mil|HoleType=Round|Shape=RoundedRectangle|*
%AMROUNDEDRECTD39*
21,1,0.06496,0.03248,0,0,270.0*
21,1,0.03248,0.06496,0,0,270.0*
1,1,0.03248,-0.01624,-0.01624*
1,1,0.03248,-0.01624,0.01624*
1,1,0.03248,0.01624,0.01624*
1,1,0.03248,0.01624,-0.01624*
%
%ADD39ROUNDEDRECTD39*%
%AMCUSTOMSHAPE40*
4,1,8,-0.01968,-0.03937,-0.03937,-0.01968,-0.03937,0.01968,-0.01968,0.03937,0.01968,0.03937,0.03937,0.01968,0.03937,-0.01968,0.01968,-0.03937,-0.01968,-0.03937,0.0*%
%ADD40CUSTOMSHAPE40*%

%ADD41C,0.06102*%
%ADD42C,0.03150*%
%ADD43C,0.25197*%
G04:AMPARAMS|DCode=44|XSize=62.99mil|YSize=62.99mil|CornerRadius=15.75mil|HoleSize=0mil|Usage=FLASHONLY|Rotation=90.000|XOffset=0mil|YOffset=0mil|HoleType=Round|Shape=RoundedRectangle|*
%AMROUNDEDRECTD44*
21,1,0.06299,0.03150,0,0,90.0*
21,1,0.03150,0.06299,0,0,90.0*
1,1,0.03150,0.01575,0.01575*
1,1,0.03150,0.01575,-0.01575*
1,1,0.03150,-0.01575,-0.01575*
1,1,0.03150,-0.01575,0.01575*
%
%ADD44ROUNDEDRECTD44*%
%ADD45R,0.06102X0.06102*%
%ADD46C,0.09567*%
%ADD47C,0.07382*%
%ADD48C,0.05000*%
G36*
X353528Y216203D02*
Y8207D01*
X346124Y803D01*
X323167D01*
X315763Y8207D01*
Y94488D01*
X315702Y94795D01*
X315528Y95056D01*
X307654Y102930D01*
X307394Y103104D01*
X307087Y103165D01*
X307086Y103165D01*
X129921Y103165D01*
X129614Y103104D01*
X129354Y102930D01*
X121480Y95056D01*
X121306Y94795D01*
X121245Y94488D01*
X121245Y94488D01*
Y12144D01*
X113841Y4740D01*
X62189D01*
X55921Y11008D01*
Y69238D01*
X57731Y71048D01*
X59842D01*
X59843Y71048D01*
X59843Y71048D01*
X60584Y71048D01*
X60873Y70548D01*
X60825Y70464D01*
X60465Y69121D01*
Y67730D01*
X60825Y66386D01*
X61520Y65181D01*
X62504Y64197D01*
X63709Y63502D01*
X65052Y63142D01*
X66444D01*
X67787Y63502D01*
X68992Y64197D01*
X69976Y65181D01*
X70671Y66386D01*
X71031Y67730D01*
Y69121D01*
X70803Y69973D01*
X70805Y69991D01*
X71191Y70457D01*
X77326D01*
X77568Y69957D01*
X77305Y68977D01*
Y67874D01*
X77591Y66808D01*
X78142Y65852D01*
X78923Y65072D01*
X79878Y64520D01*
X80944Y64234D01*
X82048D01*
X83114Y64520D01*
X84069Y65072D01*
X84850Y65852D01*
X85401Y66808D01*
X85687Y67874D01*
Y68977D01*
X85401Y70043D01*
X84850Y70999D01*
X84069Y71779D01*
X83166Y72300D01*
X83145Y72324D01*
X83094Y72425D01*
X82997Y72879D01*
X83025Y72921D01*
X83086Y73228D01*
Y107874D01*
X83025Y108181D01*
X82997Y108223D01*
X83094Y108677D01*
X83145Y108778D01*
X83166Y108802D01*
X84069Y109324D01*
X84850Y110104D01*
X85401Y111059D01*
X85687Y112125D01*
Y113229D01*
X85401Y114295D01*
X84850Y115251D01*
X84069Y116031D01*
X83114Y116583D01*
X82048Y116868D01*
X80944D01*
X79878Y116583D01*
X78923Y116031D01*
X78142Y115251D01*
X77591Y114295D01*
X77305Y113229D01*
Y112125D01*
X77568Y111145D01*
X77326Y110645D01*
X71191D01*
X70805Y111112D01*
X70803Y111129D01*
X71031Y111982D01*
Y113373D01*
X70671Y114716D01*
X69976Y115921D01*
X68992Y116905D01*
X67787Y117601D01*
X66444Y117961D01*
X65052D01*
X63709Y117601D01*
X62504Y116905D01*
X61520Y115921D01*
X60825Y114716D01*
X60465Y113373D01*
Y111982D01*
X60825Y110638D01*
X60911Y110488D01*
X60661Y110055D01*
X58403D01*
X55921Y112537D01*
Y121715D01*
X59388Y125181D01*
X307087D01*
X307394Y125243D01*
X307654Y125417D01*
X315528Y133291D01*
X315528Y133291D01*
X315702Y133551D01*
X315763Y133858D01*
Y216203D01*
X323167Y223607D01*
X346124D01*
X353528Y216203D01*
D02*
G37*
%LPC*%
G36*
X343000Y215342D02*
X342039D01*
X341111Y215094D01*
X340279Y214613D01*
X339599Y213934D01*
X339119Y213102D01*
X338870Y212173D01*
Y211212D01*
X339119Y210284D01*
X339599Y209452D01*
X340279Y208772D01*
X341111Y208292D01*
X342039Y208043D01*
X343000D01*
X343928Y208292D01*
X344761Y208772D01*
X345440Y209452D01*
X345921Y210284D01*
X346169Y211212D01*
Y212173D01*
X345921Y213102D01*
X345440Y213934D01*
X344761Y214613D01*
X343928Y215094D01*
X343000Y215342D01*
D02*
G37*
G36*
X344094Y205383D02*
X340945D01*
X340135Y205222D01*
X339449Y204764D01*
X338990Y204077D01*
X338829Y203268D01*
Y200118D01*
X338990Y199309D01*
X339449Y198622D01*
X340135Y198164D01*
X340945Y198003D01*
X344094D01*
X344904Y198164D01*
X345590Y198622D01*
X346049Y199309D01*
X346210Y200118D01*
Y203268D01*
X346049Y204077D01*
X345590Y204764D01*
X344904Y205222D01*
X344094Y205383D01*
D02*
G37*
G36*
X334301Y188829D02*
X331053D01*
X330224Y188664D01*
X329522Y188195D01*
X329052Y187492D01*
X328985Y187155D01*
X326772D01*
X325962Y186994D01*
X325276Y186535D01*
X319370Y180630D01*
X318912Y179943D01*
X318751Y179134D01*
Y134017D01*
X318465Y133732D01*
X318071Y133048D01*
X317866Y132285D01*
Y131495D01*
X318071Y130732D01*
X318465Y130048D01*
X319024Y129489D01*
X319708Y129094D01*
X320471Y128890D01*
X321261D01*
X322024Y129094D01*
X322708Y129489D01*
X323267Y130048D01*
X323662Y130732D01*
X323866Y131495D01*
Y132285D01*
X323662Y133048D01*
X323267Y133732D01*
X322982Y134017D01*
Y178258D01*
X327648Y182924D01*
X328985D01*
X329052Y182587D01*
X329522Y181884D01*
X330224Y181415D01*
X331053Y181250D01*
X334301D01*
X335130Y181415D01*
X335833Y181884D01*
X336302Y182587D01*
X336369Y182924D01*
X339571D01*
X339678Y182738D01*
X340376Y182040D01*
X341231Y181547D01*
X342184Y181291D01*
X343171D01*
X344124Y181547D01*
X344978Y182040D01*
X345676Y182738D01*
X346170Y183593D01*
X346425Y184546D01*
Y185533D01*
X346170Y186486D01*
X345676Y187341D01*
X344978Y188039D01*
X344124Y188532D01*
X343171Y188787D01*
X342184D01*
X341231Y188532D01*
X340376Y188039D01*
X339678Y187341D01*
X339571Y187155D01*
X336369D01*
X336302Y187492D01*
X335833Y188195D01*
X335130Y188664D01*
X334301Y188829D01*
D02*
G37*
G36*
X343171Y178787D02*
X342927D01*
Y175289D01*
X346425D01*
Y175533D01*
X346170Y176486D01*
X345676Y177341D01*
X344978Y178039D01*
X344124Y178532D01*
X343171Y178787D01*
D02*
G37*
G36*
X333171D02*
X332927D01*
Y175289D01*
X336425D01*
Y175533D01*
X336170Y176486D01*
X335676Y177341D01*
X334979Y178039D01*
X334124Y178532D01*
X333171Y178787D01*
D02*
G37*
G36*
X342427D02*
X342184D01*
X341231Y178532D01*
X340376Y178039D01*
X339678Y177341D01*
X339185Y176486D01*
X338929Y175533D01*
Y175289D01*
X342427D01*
Y178787D01*
D02*
G37*
G36*
X332427D02*
X332184D01*
X331230Y178532D01*
X330376Y178039D01*
X329678Y177341D01*
X329185Y176486D01*
X328929Y175533D01*
Y175289D01*
X332427D01*
Y178787D01*
D02*
G37*
G36*
X346425Y174789D02*
X342927D01*
Y171291D01*
X343171D01*
X344124Y171547D01*
X344978Y172040D01*
X345676Y172738D01*
X346170Y173593D01*
X346425Y174546D01*
Y174789D01*
D02*
G37*
G36*
X342427D02*
X338929D01*
Y174546D01*
X339185Y173593D01*
X339678Y172738D01*
X340376Y172040D01*
X341231Y171547D01*
X342184Y171291D01*
X342427D01*
Y174789D01*
D02*
G37*
G36*
X336425D02*
X332927D01*
Y171291D01*
X333171D01*
X334124Y171547D01*
X334979Y172040D01*
X335676Y172738D01*
X336170Y173593D01*
X336425Y174546D01*
Y174789D01*
D02*
G37*
G36*
X332427D02*
X328929D01*
Y174546D01*
X329185Y173593D01*
X329678Y172738D01*
X330376Y172040D01*
X331230Y171547D01*
X332184Y171291D01*
X332427D01*
Y174789D01*
D02*
G37*
G36*
X343171Y168787D02*
X342927D01*
Y165289D01*
X346425D01*
Y165533D01*
X346170Y166486D01*
X345676Y167341D01*
X344978Y168038D01*
X344124Y168532D01*
X343171Y168787D01*
D02*
G37*
G36*
X333171D02*
X332927D01*
Y165289D01*
X336425D01*
Y165533D01*
X336170Y166486D01*
X335676Y167341D01*
X334979Y168038D01*
X334124Y168532D01*
X333171Y168787D01*
D02*
G37*
G36*
X342427D02*
X342184D01*
X341231Y168532D01*
X340376Y168038D01*
X339678Y167341D01*
X339185Y166486D01*
X338929Y165533D01*
Y165289D01*
X342427D01*
Y168787D01*
D02*
G37*
G36*
X332427D02*
X332184D01*
X331230Y168532D01*
X330376Y168038D01*
X329678Y167341D01*
X329185Y166486D01*
X328929Y165533D01*
Y165289D01*
X332427D01*
Y168787D01*
D02*
G37*
G36*
X346425Y164789D02*
X342927D01*
Y161291D01*
X343171D01*
X344124Y161547D01*
X344978Y162040D01*
X345676Y162738D01*
X346170Y163593D01*
X346425Y164546D01*
Y164789D01*
D02*
G37*
G36*
X342427D02*
X338929D01*
Y164546D01*
X339185Y163593D01*
X339678Y162738D01*
X340376Y162040D01*
X341231Y161547D01*
X342184Y161291D01*
X342427D01*
Y164789D01*
D02*
G37*
G36*
X336425D02*
X332927D01*
Y161291D01*
X333171D01*
X334124Y161547D01*
X334979Y162040D01*
X335676Y162738D01*
X336170Y163593D01*
X336425Y164546D01*
Y164789D01*
D02*
G37*
G36*
X332427D02*
X328929D01*
Y164546D01*
X329185Y163593D01*
X329678Y162738D01*
X330376Y162040D01*
X331230Y161547D01*
X332184Y161291D01*
X332427D01*
Y164789D01*
D02*
G37*
G36*
X343171Y158787D02*
X342927D01*
Y155289D01*
X346425D01*
Y155533D01*
X346170Y156486D01*
X345676Y157341D01*
X344978Y158038D01*
X344124Y158532D01*
X343171Y158787D01*
D02*
G37*
G36*
X342427D02*
X342184D01*
X341231Y158532D01*
X340376Y158038D01*
X339678Y157341D01*
X339185Y156486D01*
X338929Y155533D01*
Y155289D01*
X342427D01*
Y158787D01*
D02*
G37*
G36*
X346425Y154789D02*
X342927D01*
Y151291D01*
X343171D01*
X344124Y151547D01*
X344978Y152040D01*
X345676Y152738D01*
X346170Y153593D01*
X346425Y154546D01*
Y154789D01*
D02*
G37*
G36*
X342427D02*
X338929D01*
Y154546D01*
X339185Y153593D01*
X339678Y152738D01*
X340376Y152040D01*
X341231Y151547D01*
X342184Y151291D01*
X342427D01*
Y154789D01*
D02*
G37*
G36*
X333171Y158787D02*
X332184D01*
X331230Y158532D01*
X330376Y158038D01*
X329678Y157341D01*
X329185Y156486D01*
X328929Y155533D01*
Y154546D01*
X329185Y153593D01*
X329678Y152738D01*
X330376Y152040D01*
X331230Y151547D01*
X332184Y151291D01*
X333171D01*
X334124Y151547D01*
X334979Y152040D01*
X335676Y152738D01*
X336170Y153593D01*
X336425Y154546D01*
Y155533D01*
X336170Y156486D01*
X335676Y157341D01*
X334979Y158038D01*
X334124Y158532D01*
X333171Y158787D01*
D02*
G37*
G36*
X343171Y148787D02*
X342927D01*
Y145289D01*
X346425D01*
Y145533D01*
X346170Y146486D01*
X345676Y147341D01*
X344978Y148038D01*
X344124Y148532D01*
X343171Y148787D01*
D02*
G37*
G36*
X342427D02*
X342184D01*
X341231Y148532D01*
X340376Y148038D01*
X339678Y147341D01*
X339185Y146486D01*
X338929Y145533D01*
Y145289D01*
X342427D01*
Y148787D01*
D02*
G37*
G36*
X346425Y144789D02*
X342927D01*
Y141291D01*
X343171D01*
X344124Y141547D01*
X344978Y142040D01*
X345676Y142738D01*
X346170Y143593D01*
X346425Y144546D01*
Y144789D01*
D02*
G37*
G36*
X342427D02*
X338929D01*
Y144546D01*
X339185Y143593D01*
X339678Y142738D01*
X340376Y142040D01*
X341231Y141547D01*
X342184Y141291D01*
X342427D01*
Y144789D01*
D02*
G37*
G36*
X333171Y148787D02*
X332184D01*
X331230Y148532D01*
X330376Y148038D01*
X329678Y147341D01*
X329185Y146486D01*
X328929Y145533D01*
Y144546D01*
X329185Y143593D01*
X329678Y142738D01*
X330376Y142040D01*
X331230Y141547D01*
X332184Y141291D01*
X333171D01*
X334124Y141547D01*
X334979Y142040D01*
X335676Y142738D01*
X336170Y143593D01*
X336425Y144546D01*
Y145533D01*
X336170Y146486D01*
X335676Y147341D01*
X334979Y148038D01*
X334124Y148532D01*
X333171Y148787D01*
D02*
G37*
G36*
X343171Y138787D02*
X342927D01*
Y135289D01*
X346425D01*
Y135533D01*
X346170Y136486D01*
X345676Y137341D01*
X344978Y138039D01*
X344124Y138532D01*
X343171Y138787D01*
D02*
G37*
G36*
X342427D02*
X342184D01*
X341231Y138532D01*
X340376Y138039D01*
X339678Y137341D01*
X339185Y136486D01*
X338929Y135533D01*
Y135289D01*
X342427D01*
Y138787D01*
D02*
G37*
G36*
X346425Y134789D02*
X342927D01*
Y131291D01*
X343171D01*
X344124Y131547D01*
X344978Y132040D01*
X345676Y132738D01*
X346170Y133593D01*
X346425Y134546D01*
Y134789D01*
D02*
G37*
G36*
X342427D02*
X338929D01*
Y134546D01*
X339185Y133593D01*
X339678Y132738D01*
X340376Y132040D01*
X341231Y131547D01*
X342184Y131291D01*
X342427D01*
Y134789D01*
D02*
G37*
G36*
X333171Y138787D02*
X332184D01*
X331230Y138532D01*
X330376Y138039D01*
X329678Y137341D01*
X329185Y136486D01*
X328929Y135533D01*
Y134546D01*
X329185Y133593D01*
X329678Y132738D01*
X330376Y132040D01*
X331230Y131547D01*
X332184Y131291D01*
X333171D01*
X334124Y131547D01*
X334979Y132040D01*
X335676Y132738D01*
X336170Y133593D01*
X336425Y134546D01*
Y135533D01*
X336170Y136486D01*
X335676Y137341D01*
X334979Y138039D01*
X334124Y138532D01*
X333171Y138787D01*
D02*
G37*
G36*
X343171Y128787D02*
X342927D01*
Y125289D01*
X346425D01*
Y125533D01*
X346170Y126486D01*
X345676Y127341D01*
X344978Y128039D01*
X344124Y128532D01*
X343171Y128787D01*
D02*
G37*
G36*
X342427D02*
X342184D01*
X341231Y128532D01*
X340376Y128039D01*
X339678Y127341D01*
X339185Y126486D01*
X338929Y125533D01*
Y125289D01*
X342427D01*
Y128787D01*
D02*
G37*
G36*
X120079Y122589D02*
X120079Y122588D01*
X116142D01*
X116142Y122589D01*
X115759Y122430D01*
X113791Y120461D01*
X113632Y120079D01*
X113632Y120079D01*
Y116142D01*
X113632Y116142D01*
X113791Y115759D01*
X115759Y113791D01*
X116142Y113632D01*
X116142Y113632D01*
X120079D01*
X120079Y113632D01*
X120461Y113791D01*
X122430Y115759D01*
X122589Y116142D01*
X122588Y116142D01*
Y120079D01*
X122589Y120079D01*
X122430Y120461D01*
X120461Y122430D01*
X120079Y122589D01*
D02*
G37*
G36*
X94488D02*
X94488Y122588D01*
X90551D01*
X90551Y122589D01*
X90168Y122430D01*
X88200Y120461D01*
X88042Y120079D01*
X88042Y120079D01*
Y116142D01*
X88042Y116142D01*
X88200Y115759D01*
X90168Y113791D01*
X90551Y113632D01*
X90551Y113632D01*
X94488D01*
X94488Y113632D01*
X94871Y113791D01*
X96839Y115759D01*
X96998Y116142D01*
X96998Y116142D01*
Y120079D01*
X96998Y120079D01*
X96839Y120461D01*
X94871Y122430D01*
X94488Y122589D01*
D02*
G37*
G36*
X346425Y124789D02*
X342927D01*
Y121291D01*
X343171D01*
X344124Y121547D01*
X344978Y122040D01*
X345676Y122738D01*
X346170Y123593D01*
X346425Y124546D01*
Y124789D01*
D02*
G37*
G36*
X342427D02*
X338929D01*
Y124546D01*
X339185Y123593D01*
X339678Y122738D01*
X340376Y122040D01*
X341231Y121547D01*
X342184Y121291D01*
X342427D01*
Y124789D01*
D02*
G37*
G36*
X333171Y128787D02*
X332184D01*
X331230Y128532D01*
X330376Y128039D01*
X329678Y127341D01*
X329185Y126486D01*
X328929Y125533D01*
Y124546D01*
X329185Y123593D01*
X329678Y122738D01*
X330376Y122040D01*
X331230Y121547D01*
X332184Y121291D01*
X333171D01*
X334124Y121547D01*
X334979Y122040D01*
X335676Y122738D01*
X336170Y123593D01*
X336425Y124546D01*
Y125533D01*
X336170Y126486D01*
X335676Y127341D01*
X334979Y128039D01*
X334124Y128532D01*
X333171Y128787D01*
D02*
G37*
G36*
X149606Y122589D02*
X149606Y122588D01*
X147888D01*
Y118360D01*
X152116D01*
Y120079D01*
X152116Y120079D01*
X151957Y120461D01*
X149989Y122430D01*
X149606Y122589D01*
D02*
G37*
G36*
X145669D02*
X145287Y122430D01*
X143318Y120461D01*
X143160Y120079D01*
X143160Y120079D01*
Y118360D01*
X147388D01*
Y122588D01*
X145669D01*
X145669Y122589D01*
D02*
G37*
G36*
X343171Y118787D02*
X342927D01*
Y115289D01*
X346425D01*
Y115533D01*
X346170Y116486D01*
X345676Y117341D01*
X344978Y118038D01*
X344124Y118532D01*
X343171Y118787D01*
D02*
G37*
G36*
X342427D02*
X342184D01*
X341231Y118532D01*
X340376Y118038D01*
X339678Y117341D01*
X339185Y116486D01*
X338929Y115533D01*
Y115289D01*
X342427D01*
Y118787D01*
D02*
G37*
G36*
X152116Y117860D02*
X147888D01*
Y113632D01*
X149606D01*
X149606Y113632D01*
X149989Y113791D01*
X151957Y115759D01*
X152116Y116142D01*
X152116Y116142D01*
Y117860D01*
D02*
G37*
G36*
X147388D02*
X143160D01*
Y116142D01*
X143160Y116142D01*
X143318Y115759D01*
X145287Y113791D01*
X145669Y113632D01*
X145669Y113632D01*
X147388D01*
Y117860D01*
D02*
G37*
G36*
X346425Y114789D02*
X342927D01*
Y111291D01*
X343171D01*
X344124Y111547D01*
X344978Y112040D01*
X345676Y112738D01*
X346170Y113593D01*
X346425Y114546D01*
Y114789D01*
D02*
G37*
G36*
X342427D02*
X338929D01*
Y114546D01*
X339185Y113593D01*
X339678Y112738D01*
X340376Y112040D01*
X341231Y111547D01*
X342184Y111291D01*
X342427D01*
Y114789D01*
D02*
G37*
G36*
X333171Y118787D02*
X332184D01*
X331230Y118532D01*
X330376Y118038D01*
X329678Y117341D01*
X329185Y116486D01*
X328929Y115533D01*
Y114546D01*
X329185Y113593D01*
X329678Y112738D01*
X330376Y112040D01*
X331230Y111547D01*
X332184Y111291D01*
X333171D01*
X334124Y111547D01*
X334979Y112040D01*
X335676Y112738D01*
X336170Y113593D01*
X336425Y114546D01*
Y115533D01*
X336170Y116486D01*
X335676Y117341D01*
X334979Y118038D01*
X334124Y118532D01*
X333171Y118787D01*
D02*
G37*
G36*
X343171Y108787D02*
X342927D01*
Y105289D01*
X346425D01*
Y105533D01*
X346170Y106486D01*
X345676Y107341D01*
X344978Y108038D01*
X344124Y108532D01*
X343171Y108787D01*
D02*
G37*
G36*
X342427D02*
X342184D01*
X341231Y108532D01*
X340376Y108038D01*
X339678Y107341D01*
X339185Y106486D01*
X338929Y105533D01*
Y105289D01*
X342427D01*
Y108787D01*
D02*
G37*
G36*
X346425Y104789D02*
X342927D01*
Y101291D01*
X343171D01*
X344124Y101547D01*
X344978Y102040D01*
X345676Y102738D01*
X346170Y103593D01*
X346425Y104546D01*
Y104789D01*
D02*
G37*
G36*
X342427D02*
X338929D01*
Y104546D01*
X339185Y103593D01*
X339678Y102738D01*
X340376Y102040D01*
X341231Y101547D01*
X342184Y101291D01*
X342427D01*
Y104789D01*
D02*
G37*
G36*
X333171Y108787D02*
X332184D01*
X331230Y108532D01*
X330376Y108038D01*
X329678Y107341D01*
X329185Y106486D01*
X328929Y105533D01*
Y104546D01*
X329185Y103593D01*
X329678Y102738D01*
X330376Y102040D01*
X331230Y101547D01*
X332184Y101291D01*
X333171D01*
X334124Y101547D01*
X334979Y102040D01*
X335676Y102738D01*
X336170Y103593D01*
X336425Y104546D01*
Y105533D01*
X336170Y106486D01*
X335676Y107341D01*
X334979Y108038D01*
X334124Y108532D01*
X333171Y108787D01*
D02*
G37*
G36*
X343171Y98787D02*
X342927D01*
Y95289D01*
X346425D01*
Y95533D01*
X346170Y96486D01*
X345676Y97341D01*
X344978Y98039D01*
X344124Y98532D01*
X343171Y98787D01*
D02*
G37*
G36*
X342427D02*
X342184D01*
X341231Y98532D01*
X340376Y98039D01*
X339678Y97341D01*
X339185Y96486D01*
X338929Y95533D01*
Y95289D01*
X342427D01*
Y98787D01*
D02*
G37*
G36*
X346425Y94789D02*
X342927D01*
Y91291D01*
X343171D01*
X344124Y91547D01*
X344978Y92040D01*
X345676Y92738D01*
X346170Y93593D01*
X346425Y94546D01*
Y94789D01*
D02*
G37*
G36*
X342427D02*
X338929D01*
Y94546D01*
X339185Y93593D01*
X339678Y92738D01*
X340376Y92040D01*
X341231Y91547D01*
X342184Y91291D01*
X342427D01*
Y94789D01*
D02*
G37*
G36*
X333171Y98787D02*
X332184D01*
X331230Y98532D01*
X330376Y98039D01*
X329678Y97341D01*
X329185Y96486D01*
X328929Y95533D01*
Y94546D01*
X329185Y93593D01*
X329678Y92738D01*
X330376Y92040D01*
X331230Y91547D01*
X332184Y91291D01*
X333171D01*
X334124Y91547D01*
X334979Y92040D01*
X335676Y92738D01*
X336170Y93593D01*
X336425Y94546D01*
Y95533D01*
X336170Y96486D01*
X335676Y97341D01*
X334979Y98039D01*
X334124Y98532D01*
X333171Y98787D01*
D02*
G37*
G36*
X92539Y102075D02*
X91713D01*
X90951Y101759D01*
X90367Y101175D01*
X90051Y100413D01*
Y99587D01*
X90367Y98825D01*
X90851Y98340D01*
Y82762D01*
X90367Y82278D01*
X90051Y81515D01*
Y80690D01*
X90367Y79927D01*
X90951Y79343D01*
X91713Y79028D01*
X92539D01*
X93301Y79343D01*
X93885Y79927D01*
X94201Y80690D01*
Y81515D01*
X93885Y82278D01*
X93401Y82762D01*
Y98340D01*
X93885Y98825D01*
X94201Y99587D01*
Y100413D01*
X93885Y101175D01*
X93301Y101759D01*
X92539Y102075D01*
D02*
G37*
G36*
X333000Y74516D02*
X332039D01*
X331111Y74267D01*
X330279Y73786D01*
X329599Y73107D01*
X329119Y72275D01*
X328870Y71347D01*
Y70386D01*
X329119Y69457D01*
X329599Y68625D01*
X330279Y67946D01*
X331111Y67465D01*
X332039Y67216D01*
X333000D01*
X333928Y67465D01*
X334761Y67946D01*
X335440Y68625D01*
X335921Y69457D01*
X336169Y70386D01*
Y71347D01*
X335921Y72275D01*
X335440Y73107D01*
X334761Y73786D01*
X333928Y74267D01*
X333000Y74516D01*
D02*
G37*
G36*
X344094Y74556D02*
X340945D01*
X340135Y74395D01*
X339449Y73937D01*
X338990Y73251D01*
X338829Y72441D01*
Y69291D01*
X338990Y68482D01*
X339449Y67795D01*
X340135Y67337D01*
X340945Y67176D01*
X344094D01*
X344904Y67337D01*
X345590Y67795D01*
X346049Y68482D01*
X346210Y69291D01*
Y72441D01*
X346049Y73251D01*
X345590Y73937D01*
X344904Y74395D01*
X344094Y74556D01*
D02*
G37*
G36*
Y52903D02*
X342770D01*
Y49463D01*
X346210D01*
Y50787D01*
X346049Y51597D01*
X345590Y52283D01*
X344904Y52742D01*
X344094Y52903D01*
D02*
G37*
G36*
X333000Y52862D02*
X332770D01*
Y49463D01*
X336169D01*
Y49693D01*
X335921Y50621D01*
X335440Y51454D01*
X334761Y52133D01*
X333928Y52614D01*
X333000Y52862D01*
D02*
G37*
G36*
X332270D02*
X332039D01*
X331111Y52614D01*
X330279Y52133D01*
X329599Y51454D01*
X329119Y50621D01*
X328870Y49693D01*
Y49463D01*
X332270D01*
Y52862D01*
D02*
G37*
G36*
X342270Y52903D02*
X340945D01*
X340135Y52742D01*
X339449Y52283D01*
X338990Y51597D01*
X338829Y50787D01*
Y49463D01*
X342270D01*
Y52903D01*
D02*
G37*
G36*
X336169Y48963D02*
X332770D01*
Y45563D01*
X333000D01*
X333928Y45812D01*
X334761Y46292D01*
X335440Y46972D01*
X335921Y47804D01*
X336169Y48732D01*
Y48963D01*
D02*
G37*
G36*
X332270D02*
X328870D01*
Y48732D01*
X329119Y47804D01*
X329599Y46972D01*
X330279Y46292D01*
X331111Y45812D01*
X332039Y45563D01*
X332270D01*
Y48963D01*
D02*
G37*
G36*
X346210D02*
X342770D01*
Y45522D01*
X344094D01*
X344904Y45683D01*
X345590Y46142D01*
X346049Y46828D01*
X346210Y47638D01*
Y48963D01*
D02*
G37*
G36*
X342270D02*
X338829D01*
Y47638D01*
X338990Y46828D01*
X339449Y46142D01*
X340135Y45683D01*
X340945Y45522D01*
X342270D01*
Y48963D01*
D02*
G37*
G36*
X69496Y50126D02*
X62394D01*
Y43024D01*
X69496D01*
Y50126D01*
D02*
G37*
G36*
X66412Y40126D02*
X65477D01*
X64574Y39884D01*
X63764Y39416D01*
X63103Y38755D01*
X62636Y37946D01*
X62394Y37042D01*
Y36107D01*
X62636Y35204D01*
X63103Y34394D01*
X63764Y33733D01*
X64574Y33266D01*
X65477Y33024D01*
X66412D01*
X67316Y33266D01*
X68125Y33733D01*
X68787Y34394D01*
X69254Y35204D01*
X69496Y36107D01*
Y37042D01*
X69254Y37946D01*
X68787Y38755D01*
X68125Y39416D01*
X67316Y39884D01*
X66412Y40126D01*
D02*
G37*
G36*
Y30126D02*
X65477D01*
X64574Y29884D01*
X63764Y29416D01*
X63103Y28755D01*
X62636Y27946D01*
X62394Y27042D01*
Y26107D01*
X62636Y25204D01*
X63103Y24394D01*
X63764Y23733D01*
X64574Y23266D01*
X65477Y23024D01*
X66412D01*
X67316Y23266D01*
X68125Y23733D01*
X68787Y24394D01*
X69254Y25204D01*
X69496Y26107D01*
Y27042D01*
X69254Y27946D01*
X68787Y28755D01*
X68125Y29416D01*
X67316Y29884D01*
X66412Y30126D01*
D02*
G37*
G36*
Y20126D02*
X66195D01*
Y16825D01*
X69496D01*
Y17042D01*
X69254Y17945D01*
X68787Y18755D01*
X68125Y19417D01*
X67316Y19884D01*
X66412Y20126D01*
D02*
G37*
G36*
X65695D02*
X65477D01*
X64574Y19884D01*
X63764Y19417D01*
X63103Y18755D01*
X62636Y17945D01*
X62394Y17042D01*
Y16825D01*
X65695D01*
Y20126D01*
D02*
G37*
G36*
X69496Y16325D02*
X66195D01*
Y13024D01*
X66412D01*
X67316Y13266D01*
X68125Y13733D01*
X68787Y14394D01*
X69254Y15204D01*
X69496Y16107D01*
Y16325D01*
D02*
G37*
G36*
X65695D02*
X62394D01*
Y16107D01*
X62636Y15204D01*
X63103Y14394D01*
X63764Y13733D01*
X64574Y13266D01*
X65477Y13024D01*
X65695D01*
Y16325D01*
D02*
G37*
G36*
X335677Y38689D02*
X333615D01*
X331578Y38366D01*
X329618Y37729D01*
X327781Y36793D01*
X326113Y35581D01*
X324655Y34124D01*
X323443Y32456D01*
X322507Y30619D01*
X321870Y28658D01*
X321547Y26621D01*
Y24560D01*
X321870Y22523D01*
X322507Y20562D01*
X323443Y18725D01*
X324655Y17057D01*
X326113Y15600D01*
X327781Y14388D01*
X329618Y13452D01*
X331578Y12815D01*
X333615Y12492D01*
X335677D01*
X337713Y12815D01*
X339674Y13452D01*
X341511Y14388D01*
X343179Y15600D01*
X344637Y17057D01*
X345848Y18725D01*
X346784Y20562D01*
X347422Y22523D01*
X347744Y24560D01*
Y26621D01*
X347422Y28658D01*
X346784Y30619D01*
X345848Y32456D01*
X344637Y34124D01*
X343179Y35581D01*
X341511Y36793D01*
X339674Y37729D01*
X337713Y38366D01*
X335677Y38689D01*
D02*
G37*
%LPD*%
D32*
X332677Y185039D02*
X342677D01*
X326772D02*
X332677D01*
X320866Y179134D02*
X326772Y185039D01*
X320866Y131890D02*
Y179134D01*
D33*
X92126Y81102D02*
Y100000D01*
D36*
X332520Y70866D02*
D03*
Y49213D02*
D03*
X342520Y211693D02*
D03*
D37*
X342520Y70866D02*
D03*
Y49213D02*
D03*
D38*
X342677Y185039D02*
D03*
Y95039D02*
D03*
Y105039D02*
D03*
X332677Y95039D02*
D03*
Y105039D02*
D03*
X342677Y125039D02*
D03*
X332677D02*
D03*
X342677Y155039D02*
D03*
X332677D02*
D03*
X342677Y165039D02*
D03*
X332677D02*
D03*
Y175039D02*
D03*
X342677D02*
D03*
X332677Y145039D02*
D03*
X342677D02*
D03*
X332677Y135039D02*
D03*
X342677D02*
D03*
X332677Y115039D02*
D03*
X342677D02*
D03*
D39*
X332677Y185039D02*
D03*
D40*
X118110Y118110D02*
D03*
X147638D02*
D03*
X92520D02*
D03*
D41*
X65945Y26575D02*
D03*
Y16575D02*
D03*
Y36575D02*
D03*
D42*
X327559Y18504D02*
D03*
Y32677D02*
D03*
X341732D02*
D03*
X334646Y15748D02*
D03*
Y35433D02*
D03*
X324803Y25591D02*
D03*
X344488D02*
D03*
X341732Y18504D02*
D03*
X111457Y58819D02*
D03*
X103347Y109252D02*
D03*
X92126Y81102D02*
D03*
X98425Y93504D02*
D03*
X86024Y107677D02*
D03*
Y73425D02*
D03*
X92126Y100000D02*
D03*
D43*
X334646Y25591D02*
D03*
D44*
X342520Y201693D02*
D03*
D45*
X65945Y46575D02*
D03*
D46*
X65748Y68425D02*
D03*
Y112677D02*
D03*
D47*
X81496Y68425D02*
D03*
Y112677D02*
D03*
D48*
X320866Y131890D02*
D03*
M02*
