G04*
G04 #@! TF.GenerationSoftware,Altium Limited,Altium Designer,26.2.0 (7)*
G04*
G04 Layer_Physical_Order=1*
G04 Layer_Color=255*
%FSLAX25Y25*%
%MOIN*%
G70*
G04*
G04 #@! TF.SameCoordinates,E8282BCE-06FA-4BCD-A659-1799FBCFE347*
G04*
G04*
G04 #@! TF.FilePolarity,Positive*
G04*
G01*
G75*
%ADD13R,0.05000X0.12520*%
%ADD14R,0.03937X0.03150*%
%ADD15R,0.04331X0.02362*%
%ADD16R,0.04331X0.01181*%
%ADD32C,0.03150*%
%ADD33C,0.01500*%
%ADD34C,0.01968*%
%ADD35C,0.01181*%
%ADD36C,0.06299*%
G04:AMPARAMS|DCode=37|XSize=62.99mil|YSize=62.99mil|CornerRadius=15.75mil|HoleSize=0mil|Usage=FLASHONLY|Rotation=180.000|XOffset=0mil|YOffset=0mil|HoleType=Round|Shape=RoundedRectangle|*
%AMROUNDEDRECTD37*
21,1,0.06299,0.03150,0,0,180.0*
21,1,0.03150,0.06299,0,0,180.0*
1,1,0.03150,-0.01575,0.01575*
1,1,0.03150,0.01575,0.01575*
1,1,0.03150,0.01575,-0.01575*
1,1,0.03150,-0.01575,-0.01575*
%
%ADD37ROUNDEDRECTD37*%
%ADD38C,0.06496*%
G04:AMPARAMS|DCode=39|XSize=64.96mil|YSize=64.96mil|CornerRadius=16.24mil|HoleSize=0mil|Usage=FLASHONLY|Rotation=270.000|XOffset=0mil|YOffset=0mil|HoleType=Round|Shape=RoundedRectangle|*
%AMROUNDEDRECTD39*
21,1,0.06496,0.03248,0,0,270.0*
21,1,0.03248,0.06496,0,0,270.0*
1,1,0.03248,-0.01624,-0.01624*
1,1,0.03248,-0.01624,0.01624*
1,1,0.03248,0.01624,0.01624*
1,1,0.03248,0.01624,-0.01624*
%
%ADD39ROUNDEDRECTD39*%
%AMCUSTOMSHAPE40*
4,1,8,-0.01968,-0.03937,-0.03937,-0.01968,-0.03937,0.01968,-0.01968,0.03937,0.01968,0.03937,0.03937,0.01968,0.03937,-0.01968,0.01968,-0.03937,-0.01968,-0.03937,0.0*%
%ADD40CUSTOMSHAPE40*%

%ADD41C,0.06102*%
%ADD42C,0.03150*%
%ADD43C,0.25197*%
G04:AMPARAMS|DCode=44|XSize=62.99mil|YSize=62.99mil|CornerRadius=15.75mil|HoleSize=0mil|Usage=FLASHONLY|Rotation=90.000|XOffset=0mil|YOffset=0mil|HoleType=Round|Shape=RoundedRectangle|*
%AMROUNDEDRECTD44*
21,1,0.06299,0.03150,0,0,90.0*
21,1,0.03150,0.06299,0,0,90.0*
1,1,0.03150,0.01575,0.01575*
1,1,0.03150,0.01575,-0.01575*
1,1,0.03150,-0.01575,-0.01575*
1,1,0.03150,-0.01575,0.01575*
%
%ADD44ROUNDEDRECTD44*%
%ADD45R,0.06102X0.06102*%
%ADD46C,0.09567*%
%ADD47C,0.07382*%
%ADD48C,0.05000*%
D13*
X81457Y46859D02*
D03*
X91457D02*
D03*
X111457D02*
D03*
X101457D02*
D03*
D14*
X98425Y103347D02*
D03*
Y109252D02*
D03*
Y89567D02*
D03*
Y83661D02*
D03*
D15*
X86024Y77953D02*
D03*
Y103150D02*
D03*
Y81102D02*
D03*
Y100000D02*
D03*
D16*
Y97441D02*
D03*
Y93504D02*
D03*
Y87598D02*
D03*
Y83661D02*
D03*
Y85630D02*
D03*
Y89567D02*
D03*
Y91535D02*
D03*
Y95472D02*
D03*
D32*
X332520Y70866D02*
X342520D01*
X320866Y82520D02*
X332520Y70866D01*
X320866Y82520D02*
Y106299D01*
Y131890D01*
X125984Y108268D02*
X318898D01*
X320866Y106299D01*
X118110Y100394D02*
Y118110D01*
Y100394D02*
X125984Y108268D01*
X118110Y33465D02*
Y100394D01*
X111221Y26575D02*
X118110Y33465D01*
X65945Y26575D02*
X111221D01*
D33*
X98425Y109252D02*
X103347D01*
X91393Y39228D02*
Y46796D01*
X88740Y36575D02*
X91393Y39228D01*
X65945Y36575D02*
X88740D01*
X91393Y46796D02*
X91457Y46859D01*
X92126Y117717D02*
X92520Y118110D01*
X92126Y100000D02*
Y117717D01*
X98425Y109252D02*
X98425Y109252D01*
X318898Y153543D02*
X327402Y145039D01*
X332677D01*
X318898Y153543D02*
Y200787D01*
X322835Y159449D02*
X327244Y155039D01*
X322835Y159449D02*
Y196850D01*
X327244Y155039D02*
X332677D01*
X101457Y46859D02*
Y57992D01*
X92126Y67323D02*
X101457Y57992D01*
X81172Y46575D02*
X81457Y46859D01*
X65945Y46575D02*
X81172D01*
X92126Y67323D02*
Y81102D01*
X86024D02*
X92126D01*
X98425Y89567D02*
Y93504D01*
X86024Y103150D02*
Y107677D01*
Y73425D02*
Y77953D01*
Y100000D02*
X92126D01*
X329803Y211693D02*
X342520D01*
X318898Y200787D02*
X329803Y211693D01*
X322835Y196850D02*
X327677Y201693D01*
X342520D01*
D34*
X111457Y46859D02*
Y58819D01*
D35*
X90551Y84646D02*
X97441D01*
X89567Y83661D02*
X90551Y84646D01*
X97441D02*
X98425Y83661D01*
X86024Y83661D02*
X89567D01*
X86024Y95472D02*
X95472D01*
X98425Y98425D02*
Y103347D01*
X95472Y95472D02*
X98425Y98425D01*
D36*
X332520Y70866D02*
D03*
Y49213D02*
D03*
X342520Y211693D02*
D03*
D37*
X342520Y70866D02*
D03*
Y49213D02*
D03*
D38*
X342677Y185039D02*
D03*
Y95039D02*
D03*
Y105039D02*
D03*
X332677Y95039D02*
D03*
Y105039D02*
D03*
X342677Y125039D02*
D03*
X332677D02*
D03*
X342677Y155039D02*
D03*
X332677D02*
D03*
X342677Y165039D02*
D03*
X332677D02*
D03*
Y175039D02*
D03*
X342677D02*
D03*
X332677Y145039D02*
D03*
X342677D02*
D03*
X332677Y135039D02*
D03*
X342677D02*
D03*
X332677Y115039D02*
D03*
X342677D02*
D03*
D39*
X332677Y185039D02*
D03*
D40*
X118110Y118110D02*
D03*
X147638D02*
D03*
X92520D02*
D03*
D41*
X65945Y26575D02*
D03*
Y16575D02*
D03*
Y36575D02*
D03*
D42*
X327559Y18504D02*
D03*
Y32677D02*
D03*
X341732D02*
D03*
X334646Y15748D02*
D03*
Y35433D02*
D03*
X324803Y25591D02*
D03*
X344488D02*
D03*
X341732Y18504D02*
D03*
X111457Y58819D02*
D03*
X103347Y109252D02*
D03*
X92126Y81102D02*
D03*
X98425Y93504D02*
D03*
X86024Y107677D02*
D03*
Y73425D02*
D03*
X92126Y100000D02*
D03*
D43*
X334646Y25591D02*
D03*
D44*
X342520Y201693D02*
D03*
D45*
X65945Y46575D02*
D03*
D46*
X65748Y68425D02*
D03*
Y112677D02*
D03*
D47*
X81496Y68425D02*
D03*
Y112677D02*
D03*
D48*
X320866Y131890D02*
D03*
M02*
