M48
;Layer_Color=9474304
;FILE_FORMAT=2:5
INCH
;TYPE=PLATED
T01F00S00C0.01575
T02F00S00C0.01968
T03F00S00C0.02362
T04F00S00C0.04016
T05F00S00C0.04331
T06F00S00C0.04921
T07F00S00C0.06378
T08F00S00C0.13386
%
T01
X0227756Y0195472
X0233858Y0203150
X0240158Y0215551
X0233858Y0222047
X0227756Y0229724
X0245079Y0231299
X0253189Y0180866
T02
X0466535Y0147638
X0469291Y0140551
X0476378Y0137795
X0483465Y0140551
X0486221Y0147638
X0483465Y0154724
X0469291
X0476378Y0157480
X0289370Y0240158
X0259842
X0234252
T03
X0462598Y0253937
T04
X0207677Y0138622
Y0148622
Y0158622
Y0168622
T05
X0474252Y0171260
X0484252
Y0192913
X0474252
X0474409Y0217087
X0484410
Y0227087
X0474409
Y0237087
Y0247087
X0484410
Y0257087
Y0267087
Y0277087
X0474409
Y0287087
X0484410
Y0297087
Y0307087
X0474409
Y0297087
Y0267087
Y0257087
X0484410Y0237087
X0484252Y0323740
Y0333740
T06
X0223228Y0190472
Y0234724
T07
X0207480Y0190472
Y0234724
T08
X0476378Y0147638
M30
